# xmcd
#
# Track frame offsets:
# 150
# 16110
# 33490
# 48485
# 65240
# 77390
# 90657
# 104590
# 122492
# 141627
# 153930
# 172232
# 189755
# 204245
#
# Disc length: 2906 seconds
#
#
# Revision: 0
# Processed by: cddbd v1.4PL0 Copyright (c) Steve Scherf et al.
# Submitted via: FreeRIP 2.53 
#
DISCID=b90b580e
DTITLE=Sérgio Reis - [CD1) Sucessos
DYEAR=1900
DGENRE=country
TTITLE0=Guantamanera
TTITLE1=Segura peão
TTITLE2=Hoje eu não posso ir
TTITLE3=Mais uma vez
TTITLE4=Quebra - cama
TTITLE5=Marcando estrada
TTITLE6=Gaúcho largado
TTITLE7=Vaso quebrado
TTITLE8=Viola calada
TTITLE9=Cavalo enxuto
TTITLE10=Ventos uivantes
TTITLE11=Cabocla Teresa
TTITLE12=Estrada da saudade
TTITLE13=Baião de garoa
EXTD=RIP by Sandro S C
EXTT0=
EXTT1=
EXTT2=
EXTT3=
EXTT4=
EXTT5=
EXTT6=
EXTT7=
EXTT8=
EXTT9=
EXTT10=
EXTT11=Participação de João Pacífico
EXTT12=
EXTT13=Dominguinhos/ Part. Sérgio Reis
PLAYORDER=
